<?xml version="1.0" encoding="utf-8"?>
<!-- Generator: Adobe Illustrator 19.0.1, SVG Export Plug-In . SVG Version: 6.00 Build 0)  -->
<svg version="1.1" id="Layer_1" xmlns="http://www.w3.org/2000/svg" xmlns:xlink="http://www.w3.org/1999/xlink" x="0px" y="0px"
	 width="80px" height="280px" viewBox="-599 261 80 280" style="enable-background:new -599 261 80 280;" xml:space="preserve">
<style type="text/css">
	.st0{fill:#0077CC;}
	.st1{fill:#2D2D2D;}
	.st2{fill:#EEEEEE;}
	.st3{fill:#D3D7DC;}
	.st4{fill:#777777;}
</style>
<path class="st0" d="M-593.5,261l-1,1l3.8,3.8h-8.3v1.4h8.4l-3.9,3.8l1,1l5.5-5.5L-593.5,261z"/>
<path class="st1" d="M-590.6,309.7v3.1c3,0.2,5.3,1.2,5.3,2.1h-12.3c0-0.9,2.1-1.9,5-2.1v-3.1c-3.6-0.5-6.4-3.7-6.4-7.6v-1.6h1v1.6
	c0,3.7,2.9,6.7,6.5,6.7l0,0c3.6,0,6.5-3,6.5-6.7v-1.6h1v1.6C-584,306.1-586.9,309.3-590.6,309.7z M-591.5,307.7
	c-3,0-5.5-2.5-5.5-5.7v-2.6h4.5v-1h-4.5v-1h4.5v-1h-4.5v-1h4.5v-1h-4.5v-1h4.5v-1h-4.5v-1.6c0-3.3,2.5-5.8,5.5-5.8s5.5,2.5,5.5,5.6
	v1.6h-4.5v1h4.5v1h-4.5v1h4.5v1h-4.5v1h4.5v1h-4.5v1h4.5v2.8C-586,305.2-588.5,307.7-591.5,307.7z"/>
<g>
	<path class="st1" d="M-565.1,373.7v3.1c3,0.2,5.3,1.2,5.3,2.1h-12.3c0-0.9,2.1-1.9,5-2.1v-3.1c-3.6-0.5-6.4-3.7-6.4-7.6v-1.6h1v1.6
		c0,3.7,2.9,6.7,6.5,6.7l0,0c3.6,0,6.5-3,6.5-6.7v-1.6h1.1v1.6C-558.5,370.1-561.4,373.3-565.1,373.7z M-566,371.7
		c-3,0-5.5-2.5-5.5-5.7v-2.6h4.5v-1h-4.5v-1h4.5v-1h-4.5v-1h4.5v-1h-4.5v-1h4.5v-1h-4.5v-1.6c0-3.1,2.5-5.6,5.5-5.6s5.5,2.5,5.5,5.6
		v1.6h-4.5v1h4.5v1h-4.5v1h4.5v1h-4.5v1h4.5v1h-4.5v1h4.5v2.6C-560.5,369.2-563,371.7-566,371.7z"/>
	<path class="st2" d="M-566,336.8c15,0,27.2,12.2,27.2,27.2s-12.2,27.2-27.2,27.2s-27.2-12.2-27.2-27.2S-581,336.8-566,336.8
		 M-566,331c-18.2,0-33,14.8-33,33s14.8,33,33,33s33-14.8,33-33S-547.8,331-566,331L-566,331z"/>
</g>
<g>
	<rect x="-599" y="434.8" class="st3" width="44" height="9"/>
	<rect x="-599" y="423.2" class="st3" width="44" height="9.1"/>
	<path class="st3" d="M-562,411h-30c-3.9,0-7,3.2-7,7.2v2.4h44v-2.4C-555,414.2-558.1,411-562,411z"/>
	<path class="st3" d="M-599,446.4v2.4c0,4,3.1,7.2,7,7.2h18.8v9.6l9.2-9.6h2c3.9,0,7-3.2,7-7.2v-2.4L-599,446.4L-599,446.4z"/>
</g>
<path class="st4" d="M-599,510.7l4.3-4.2l-4.3-4.2l1.3-1.3l5.7,5.5l-5.7,5.5L-599,510.7z"/>
<path class="st4" d="M-592,490.7l-4.3-4.2l4.3-4.2l-1.3-1.3l-5.7,5.5l5.7,5.5L-592,490.7z"/>
<g>
	<path class="st3" d="M-578.9,261C-579,261-579,261-578.9,261c-0.1,0-0.1,0-0.2,0c-2.6,0-4.7,2.1-4.7,4.7c0,2.5,4.7,9.3,4.7,9.3
		s4.7-6.8,4.7-9.3C-574.3,263.1-576.4,261-578.9,261z M-579,267.4c-1.2,0-2.1-1-2.1-2.1c0-1.2,1-2.1,2.1-2.1c1.2,0,2.1,1,2.1,2.1
		C-576.9,266.4-577.9,267.4-579,267.4z"/>
</g>
</svg>
