<?xml version="1.0" encoding="utf-8"?>
<!-- Generator: Adobe Illustrator 18.1.0, SVG Export Plug-In . SVG Version: 6.00 Build 0)  -->
<svg version="1.1" id="Layer_1" xmlns="http://www.w3.org/2000/svg" xmlns:xlink="http://www.w3.org/1999/xlink" x="0px" y="0px"
	 width="600.1px" height="117.9px" viewBox="0 0 600.1 117.9" enable-background="new 0 0 600.1 117.9" xml:space="preserve">
<path fill="#FFFFFF" d="M135.9,72.9l-6.8-0.6c-5.4-0.4-7.4-2.6-7.4-6.2c0-4.3,3.3-7,9.5-7c4.4,0,8.3,1,11.3,3.4l4.1-4.1
	c-3.8-3.1-9.3-4.6-15.3-4.6c-9.1,0-15.7,4.7-15.7,12.5c0,7,4.4,10.7,12.7,11.4l7,0.6c4.9,0.4,7.1,2.5,7.1,6.2c0,5-4.3,7.5-11.3,7.5
	c-5.3,0-9.9-1.4-13.2-4.9l-4.2,4.2c4.7,4.5,10.3,6.1,17.5,6.1c10.3,0,17.3-4.8,17.3-13C148.4,76.5,143.3,73.6,135.9,72.9z
	 M189.1,53.8c-6.8,0-11.1,1.3-14.9,6.1c-0.1,0.1,4.1,4.1,4.1,4.1c2.5-3.5,5.3-4.8,10.7-4.8c7.8,0,10.9,3.1,10.9,9.3v4.1h-12.8
	c-9.5,0-14.7,4.8-14.7,12.3c0,3.4,1.1,6.6,3.2,8.7c2.7,2.8,6.1,3.9,12,3.9c5.7,0,8.8-1.1,12.3-4.6v4.1h6.2V68
	C206.2,58.7,200.5,53.8,189.1,53.8z M199.9,81.8c0,3.5-0.7,6-2.2,7.4c-2.7,2.6-5.9,2.9-9.5,2.9c-6.7,0-9.8-2.3-9.8-7.3
	c0-4.9,3.1-7.5,9.5-7.5h11.9V81.8z M230.6,59.3c4.1,0,6.6,1.2,9.8,4.8c0,0,4.2-4.1,4.1-4.1c-4.4-4.7-8.1-6.2-13.9-6.2
	c-10.7,0-18.9,7.3-18.9,21.8c0,14.5,8.1,21.8,18.9,21.8c5.9,0,9.6-1.6,14-6.3l-4.2-4.1c-3.2,3.5-5.7,4.8-9.8,4.8
	c-4.2,0-7.6-1.6-9.9-4.8c-2-2.8-2.8-6.1-2.8-11.4c0-5.4,0.8-8.7,2.8-11.4C223,61,226.4,59.3,230.6,59.3z M283.9,54.2h-7.8L256.8,73
	l0-37.8h-6.2v61.6h6.2l0-15.5l7.6-7.6l14.3,23.1h7.7l-17.7-27.4L283.9,54.2z M313.2,52c-6.6,0-11,2.6-13.7,5.4c-4,4.2-5,9.2-5,17.2
	c0,8.1,1,13.1,5,17.3c2.7,2.9,7.1,5.4,13.7,5.4c6.6,0,11.1-2.6,13.8-5.4c4-4.2,5-9.2,5-17.3c0-8-1-13-5-17.2
	C324.2,54.6,319.7,52,313.2,52z M318.4,85.5c-1.3,1.3-3,2-5.2,2s-3.8-0.7-5.1-2c-2.3-2.3-2.6-6.2-2.6-10.8c0-4.6,0.3-8.4,2.6-10.7
	c1.3-1.3,2.9-2,5.1-2s3.9,0.7,5.2,2c2.3,2.3,2.6,6.1,2.6,10.7C320.9,79.3,320.7,83.2,318.4,85.5z M361.4,52.5l-8.9,27.4l-9-27.4
	h-11.7l16.3,44.3h8.7l16.3-44.3H361.4z M391.9,52c-11.5,0-19.3,8.2-19.3,22.6c0,18,10,22.7,20.5,22.7c8,0,12.3-2.5,16.8-7l-6.7-6.6
	c-2.8,2.8-5.2,4.2-10,4.2c-6.2,0-9.7-4.2-9.7-9.9h27.7v-4.9C411.2,61.1,404.2,52,391.9,52z M383.5,70.6c0.1-2,0.3-3.1,1-4.8
	c1.2-2.6,3.7-4.6,7.4-4.6c3.7,0,6.2,2,7.4,4.6c0.7,1.6,0.9,2.8,1,4.8H383.5z M427.5,56.8v-4.3h-10.8v44.3h11.1V70.2
	c0-5.6,3.7-8.2,7.1-8.2c2.7,0,4.1,0.9,5.8,2.6l8.4-8.4c-3.1-3.1-6.1-4.2-10.5-4.2C433.9,52,429.7,54.2,427.5,56.8z M452.6,47.9v48.9
	h11.1v-35h8.2v-8.4h-8.2v-4.9c0-2.6,1.3-4,3.9-4h4.3v-9.4h-6.3C456.5,35.2,452.6,41.6,452.6,47.9z M517.4,52c-6.6,0-11,2.6-13.7,5.4
	c-4,4.2-5,9.2-5,17.2c0,8.1,1,13.1,5,17.3c2.7,2.9,7.1,5.4,13.7,5.4c6.6,0,11.1-2.6,13.8-5.4c4-4.2,5-9.2,5-17.3c0-8-1-13-5-17.2
	C528.4,54.6,523.9,52,517.4,52z M522.5,85.5c-1.3,1.3-3,2-5.2,2c-2.2,0-3.8-0.7-5.1-2c-2.3-2.3-2.6-6.2-2.6-10.8
	c0-4.6,0.3-8.4,2.6-10.7c1.3-1.3,2.9-2,5.1-2c2.2,0,3.9,0.7,5.2,2c2.3,2.3,2.6,6.1,2.6,10.7C525.1,79.3,524.8,83.2,522.5,85.5z
	 M588.4,52.5l-7.1,27.4l-9.1-27.4h-8.1l-9,27.4l-7.1-27.4h-11.7l13.6,44.3h9.1l9.3-27.8l9.3,27.8h9.1l13.5-44.3H588.4z M488.1,83.5
	V35.2h-11.1v49c0,6.3,3.8,12.7,12.9,12.7h6.3v-9.4h-4.3C489.2,87.5,488.1,86.2,488.1,83.5z M165.7,61l5.8-5.8h-11.8v-14h-6.2v44.2
	c0,6.3,3.6,11.4,10.9,11.4h4.4v-5.4h-3.3c-4,0-5.8-2.3-5.8-6.2V61H165.7z"/>
<polygon fill="#FFFFFF" points="84.1,107.4 84.1,75.8 94.6,75.8 94.6,117.9 0,117.9 0,75.8 10.5,75.8 10.5,107.4 "/>
<path fill="#FFFFFF" d="M22.1,72.9l51.5,10.8l2.2-10.3L24.3,62.6L22.1,72.9z M28.9,48.3l47.7,22.2l4.4-9.5L33.3,38.7L28.9,48.3z
	 M42.1,24.9l40.4,33.7l6.7-8.1L48.8,16.8L42.1,24.9z M68.2,0l-8.4,6.3l31.4,42.2l8.4-6.3L68.2,0z M21,96.8l52.6,0V86.3l-52.6,0V96.8
	z"/>
</svg>
