<?xml version="1.0" encoding="utf-8"?>
<!-- Generator: Adobe Illustrator 19.2.1, SVG Export Plug-In . SVG Version: 6.00 Build 0)  -->
<svg version="1.1" id="Layer_1" xmlns="http://www.w3.org/2000/svg" xmlns:xlink="http://www.w3.org/1999/xlink" x="0px" y="0px"
	 width="192px" height="38px" viewBox="0 0 192 38" style="enable-background:new 0 0 192 38;" xml:space="preserve">
<style type="text/css">
	.st0{fill:#222426;}
	.st1{fill:#BCBBBB;}
	.st2{fill:#F48024;}
</style>
<g>
	<path class="st0" d="M43,23.1l-2.2-0.2c-1.7-0.1-2.3-0.8-2.3-2c0-1.4,1-2.2,3-2.2c1.4,0,2.6,0.3,3.6,1.1l1.3-1.3
		c-1.2-1-2.9-1.5-4.8-1.5c-2.9,0-5,1.5-5,4c0,2.2,1.4,3.4,4,3.6l2.2,0.2c1.6,0.1,2.2,0.8,2.2,2c0,1.6-1.4,2.4-3.6,2.4
		c-1.7,0-3.1-0.4-4.2-1.6L36,28.9c1.5,1.4,3.3,1.9,5.5,1.9c3.3,0,5.5-1.5,5.5-4.1C47,24.2,45.4,23.3,43,23.1z M59.9,17
		c-2.2,0-3.5,0.4-4.7,1.9l1.3,1.3c0.8-1.1,1.7-1.5,3.4-1.5c2.5,0,3.5,1,3.5,2.9v1.3h-4.1c-3,0-4.7,1.5-4.7,3.9c0,1.1,0.3,2.1,1,2.8
		c0.9,0.9,1.9,1.2,3.8,1.2c1.8,0,2.8-0.3,3.9-1.5v1.3h2v-9.2C65.3,18.6,63.5,17,59.9,17z M63.3,25.9c0,1.1-0.2,1.9-0.7,2.3
		c-0.9,0.8-1.9,0.9-3,0.9c-2.1,0-3.1-0.7-3.1-2.3s1-2.4,3-2.4h3.8L63.3,25.9L63.3,25.9z M73,18.8c1.3,0,2.1,0.4,3.1,1.5l1.3-1.3
		c-1.4-1.5-2.6-2-4.4-2c-3.4,0-6,2.3-6,6.9s2.6,6.9,6,6.9c1.9,0,3-0.5,4.4-2l-1.3-1.3c-1,1.1-1.8,1.5-3.1,1.5
		c-1.3,0-2.4-0.5-3.1-1.5c-0.6-0.9-0.9-1.9-0.9-3.6c0-1.7,0.3-2.8,0.9-3.6C70.6,19.3,71.7,18.8,73,18.8z M89.9,17.2h-2.5l-6.1,6v-12
		h-2v19.5h2v-4.9l2.4-2.4l4.5,7.3h2.4L85,22L89.9,17.2z M99.1,16.5c-2.1,0-3.5,0.8-4.3,1.7c-1.3,1.3-1.6,2.9-1.6,5.4
		c0,2.6,0.3,4.1,1.6,5.5c0.9,0.9,2.2,1.7,4.3,1.7s3.5-0.8,4.4-1.7c1.3-1.3,1.6-2.9,1.6-5.5c0-2.5-0.3-4.1-1.6-5.4
		C102.6,17.3,101.2,16.5,99.1,16.5z M100.8,27.1c-0.4,0.4-0.9,0.6-1.6,0.6s-1.2-0.2-1.6-0.6c-0.7-0.7-0.8-2-0.8-3.4
		c0-1.5,0.1-2.7,0.8-3.4c0.4-0.4,0.9-0.6,1.6-0.6s1.2,0.2,1.6,0.6c0.7,0.7,0.8,1.9,0.8,3.4C101.6,25.1,101.5,26.3,100.8,27.1z
		 M114.4,16.6l-2.8,8.7l-2.8-8.7H105l5.2,14h2.8l5.2-14C118.1,16.6,114.4,16.6,114.4,16.6z M124.1,16.5c-3.6,0-6.1,2.6-6.1,7.2
		c0,5.7,3.2,7.2,6.5,7.2c2.5,0,3.9-0.8,5.3-2.2l-2.1-2.1c-0.9,0.9-1.6,1.3-3.2,1.3c-2,0-3.1-1.3-3.1-3.1h8.8v-1.6
		C130.2,19.3,128,16.5,124.1,16.5z M121.4,22.3c0-0.6,0.1-1,0.3-1.5c0.4-0.8,1.2-1.5,2.3-1.5c1.2,0,2,0.6,2.3,1.5
		c0.2,0.5,0.3,0.9,0.3,1.5H121.4z M135.3,18v-1.4h-3.4v14h3.5v-8.4c0-1.8,1.2-2.6,2.2-2.6c0.9,0,1.3,0.3,1.8,0.8l2.7-2.7
		c-1-1-1.9-1.3-3.3-1.3C137.4,16.5,136,17.2,135.3,18z M143.3,15.2v15.5h3.5V19.6h2.6v-2.7h-2.6v-1.6c0-0.8,0.4-1.3,1.2-1.3h1.4v-3
		h-2C144.5,11.1,143.3,13.2,143.3,15.2z M163.8,16.5c-2.1,0-3.5,0.8-4.3,1.7c-1.3,1.3-1.6,2.9-1.6,5.4c0,2.6,0.3,4.1,1.6,5.5
		c0.9,0.9,2.2,1.7,4.3,1.7s3.5-0.8,4.4-1.7c1.3-1.3,1.6-2.9,1.6-5.5c0-2.5-0.3-4.1-1.6-5.4C167.3,17.3,165.8,16.5,163.8,16.5z
		 M165.4,27.1c-0.4,0.4-0.9,0.6-1.6,0.6c-0.7,0-1.2-0.2-1.6-0.6c-0.7-0.7-0.8-2-0.8-3.4c0-1.5,0.1-2.7,0.8-3.4
		c0.4-0.4,0.9-0.6,1.6-0.6s1.2,0.2,1.6,0.6c0.7,0.7,0.8,1.9,0.8,3.4C166.2,25.1,166.1,26.3,165.4,27.1z M186.3,16.6l-2.2,8.7
		l-2.9-8.7h-2.6l-2.8,8.7l-2.2-8.7h-3.7l4.3,14h2.9l2.9-8.8l2.9,8.8h2.9l4.3-14C190,16.6,186.3,16.6,186.3,16.6z M154.5,26.4V11.1
		H151v15.5c0,2,1.2,4,4.1,4h2v-3h-1.4C154.9,27.7,154.5,27.3,154.5,26.4z M52.5,19.3l1.8-1.8h-3.7v-4.4h-2v14c0,2,1.1,3.6,3.5,3.6
		h1.4v-1.8h-1c-1.3,0-1.8-0.7-1.8-2v-7.7L52.5,19.3L52.5,19.3z"/>
	<polygon class="st1" points="26.6,34 26.6,24 29.9,24 29.9,37.3 0,37.3 0,24 3.3,24 3.3,34 	"/>
	<path class="st2" d="M7,23.1l16.3,3.4l0.7-3.3L7.7,19.8L7,23.1z M9.1,15.3l15.1,7l1.4-3l-15.1-7.1L9.1,15.3z M13.3,7.9l12.8,10.7
		l2.1-2.6L15.4,5.3L13.3,7.9z M21.6,0l-2.7,2l9.9,13.4l2.7-2L21.6,0z M6.6,30.6h16.7v-3.3H6.6V30.6z"/>
</g>
</svg>