<?xml version="1.0" encoding="utf-8"?>
<!-- Generator: Adobe Illustrator 17.1.0, SVG Export Plug-In . SVG Version: 6.00 Build 0)  -->
<!DOCTYPE svg PUBLIC "-//W3C//DTD SVG 1.1//EN" "http://www.w3.org/Graphics/SVG/1.1/DTD/svg11.dtd">
<svg version="1.1" id="Layer_1" xmlns="http://www.w3.org/2000/svg" xmlns:xlink="http://www.w3.org/1999/xlink" x="0px" y="0px"
	 width="80px" height="280px" viewBox="0 0 80 280" enable-background="new 0 0 80 280" xml:space="preserve">
<path fill="#0077CC" d="M5.5,0l-1,1l3.8,3.8H0v1.4h8.4L4.5,10l1,1L11,5.5L5.5,0z"/>
<path fill="#2D2D2D" d="M8.4,48.7v3.1c3,0.2,5.3,1.2,5.3,2.1c0,0-12.3,0-12.3,0c0-0.9,2.1-1.9,5-2.1v-3.1C2.8,48.2,0,45,0,41.1v-1.6
	h1v1.6c0,3.7,2.9,6.7,6.5,6.7h0c3.6,0,6.5-3,6.5-6.7v-1.6H15v1.6C15,45.1,12.1,48.3,8.4,48.7z M7.5,46.7c-3,0-5.5-2.5-5.5-5.7v-2.6
	h4.5v-1H2v-1h4.5v-1H2v-1h4.5v-1H2v-1h4.5v-1H2v-1.6C2,26.5,4.5,24,7.5,24c3,0,5.5,2.5,5.5,5.6v1.6H8.5v1H13v1H8.5v1H13v1H8.5v1H13
	v1H8.5v1H13V41C13,44.2,10.5,46.7,7.5,46.7z"/>
<g>
	<path fill="#2D2D2D" d="M33.9,112.7v3.1c3,0.2,5.3,1.2,5.3,2.1c0,0-12.3,0-12.3,0c0-0.9,2.1-1.9,5-2.1v-3.1
		c-3.6-0.5-6.4-3.7-6.4-7.6v-1.6h1v1.6c0,3.7,2.9,6.7,6.5,6.7h0c3.6,0,6.5-3,6.5-6.7v-1.6h1.1v1.6C40.5,109.1,37.6,112.3,33.9,112.7
		z M33,110.7c-3,0-5.5-2.5-5.5-5.7v-2.6H32v-1h-4.5v-1H32v-1h-4.5v-1H32v-1h-4.5v-1H32v-1h-4.5v-1.6c0-3.1,2.5-5.6,5.5-5.6
		c3,0,5.5,2.5,5.5,5.6v1.6H34v1h4.5v1H34v1h4.5v1H34v1h4.5v1H34v1h4.5v2.6C38.5,108.2,36,110.7,33,110.7z"/>
	<path fill="#EEEEEE" d="M33,75.8c15,0,27.2,12.2,27.2,27.2S48,130.2,33,130.2S5.8,118,5.8,103S18,75.8,33,75.8 M33,70
		C14.8,70,0,84.8,0,103c0,18.2,14.8,33,33,33c18.2,0,33-14.8,33-33C66,84.8,51.2,70,33,70L33,70z"/>
</g>
<g>
	<rect x="0" y="173.8" fill="#D3D7DC" width="44" height="9"/>
	<rect x="0" y="162.2" fill="#D3D7DC" width="44" height="9.1"/>
	<path fill="#D3D7DC" d="M37,150H7c-3.9,0-7,3.2-7,7.2v2.4h44v-2.4C44,153.2,40.9,150,37,150z"/>
	<path fill="#D3D7DC" d="M0,185.4v2.4c0,4,3.1,7.2,7,7.2h18.8v9.6L35,195h2c3.9,0,7-3.2,7-7.2v-2.4H0z"/>
</g>
<path fill="#777777" d="M0,249.7l4.3-4.2L0,241.3l1.3-1.3l5.7,5.5L1.3,251L0,249.7z"/>
<path fill="#777777" d="M7,229.7l-4.3-4.2l4.3-4.2L5.7,220L0,225.5l5.7,5.5L7,229.7z"/>
</svg>
