<?xml version="1.0" encoding="utf-8"?>
<!-- Generator: Adobe Illustrator 17.1.0, SVG Export Plug-In . SVG Version: 6.00 Build 0)  -->
<!DOCTYPE svg PUBLIC "-//W3C//DTD SVG 1.1//EN" "http://www.w3.org/Graphics/SVG/1.1/DTD/svg11.dtd">
<svg xmlns="http://www.w3.org/2000/svg" xmlns:xlink="http://www.w3.org/1999/xlink" version="1.1" id="Layer_1" x="0px" y="0px" width="236px" height="28px" viewBox="0 0 236 28" enable-background="new 0 0 236 28" xml:space="preserve">
<g>
	<g>
		<path fill="#FFFFFF" d="M28.8,18.7l0.6-2.5c0.8,0.5,2.5,1,4,1c1.8,0,2.9-0.5,2.9-1.9c0-1.4-1.3-2-3.6-3.1c-2.1-1-3.9-2.5-3.9-5    c0-3,2.5-4.3,5.6-4.3c2.3,0,3.6,0.5,4.2,0.9L38,6.3c-0.7-0.5-1.9-0.9-3.5-0.9c-1.4,0-2.8,0.5-2.8,1.7c0,1.3,0.9,1.9,3.1,3    c2.4,1.1,4.5,2.4,4.5,5c0,3-2.1,4.7-5.8,4.7C31.4,19.7,29.4,19.1,28.8,18.7z"></path>
		<path fill="#FFFFFF" d="M41.7,16.3V9.5h-1.5V7.8c1.1-0.3,1.7-0.5,2-1.1c0.2-0.5,0.5-1.3,0.8-2.2h1.9v2.8h3.3v2.2h-3.3v5.4    c0,2.2,0.2,2.4,1.4,2.4c0.6,0,1.6-0.2,1.9-0.5l0.5,1.8c-0.6,0.5-2.3,1.1-3.8,1.1C42.9,19.7,41.7,18.8,41.7,16.3z"></path>
		<path fill="#FFFFFF" d="M49.2,16.2c0-1.5,0.9-2.7,2.4-3.3c1.5-0.6,3.4-0.8,4.8-0.8V11c0-1.4-0.7-1.7-2.4-1.7    c-1.1,0-2.8,0.4-3.6,0.9l-0.7-1.9c0.6-0.4,2.9-1.2,5-1.2c3.2,0,4.8,1,4.8,4.2v8.4h-1.7c-0.8,0-1.3-0.1-1.3-1.1v-0.1    c-0.7,0.6-1.9,1.2-3.5,1.2C50.8,19.7,49.2,18.3,49.2,16.2z M56.4,17v-3.2c-0.8,0-2.1,0.2-2.9,0.5c-0.7,0.3-1.2,0.8-1.2,1.6    c0,1.2,0.7,1.8,1.9,1.8C55.1,17.7,56.1,17.2,56.4,17z"></path>
		<path fill="#FFFFFF" d="M67.5,7.1c1.6,0,2.8,0.4,3.2,0.6l-0.4,2.4c-0.5-0.4-1.4-0.6-2.6-0.6c-1.5,0-3,1-3.1,3.7    c-0.1,2.9,1.4,4.2,3.1,4.2c1.1,0,2.2-0.3,2.7-0.6l0.5,1.7c-0.7,0.7-2.3,1.2-3.8,1.2c-3.7,0-5.6-2.7-5.6-6.2    C61.4,9.9,63.4,7.1,67.5,7.1z"></path>
		<path fill="#FFFFFF" d="M79,12.1l5,7.5h-3.5l-3.5-5.3l-1.3,1.4l0,1.8v2.2h-3.1V1.7h3.1v8.6l-0.1,2l4.3-5h3.6L79,12.1z"></path>
		<path fill="#FFFFFF" d="M85.2,3.2h9.9v2.4h-6.7V10h5v2.4h-5v4.8h7.4v2.4H85.2V3.2z"></path>
		<path fill="#FFFFFF" d="M100.5,13.4l-4.3-6h3.5l2.2,3.4l0.4,0.6l0.3-0.7l2.2-3.4h3.5l-4.3,6l4.4,6.3h-3.6l-2.3-3.5l-0.3-0.6    L102,16l-2.1,3.5h-3.6L100.5,13.4z"></path>
		<path fill="#FFFFFF" d="M115,7.1c1.6,0,2.8,0.4,3.2,0.6l-0.4,2.4c-0.5-0.4-1.4-0.6-2.6-0.6c-1.5,0-3,1-3.1,3.7    c-0.1,2.9,1.4,4.2,3.1,4.2c1.1,0,2.2-0.3,2.7-0.6l0.5,1.7c-0.7,0.7-2.3,1.2-3.8,1.2c-3.7,0-5.6-2.7-5.6-6.2    C108.9,9.9,110.9,7.1,115,7.1z"></path>
		<path fill="#FFFFFF" d="M120.1,1.7h3.1v4.9l-0.1,2c0.9-0.7,2.4-1.4,4.1-1.4c2.7,0,3.7,1.5,3.7,4.9v7.6h-3.1v-7.5    c0-1.9-0.5-2.6-2-2.5c-0.7,0-1.7,0.3-2.5,1v9h-3.1V1.7z"></path>
		<path fill="#FFFFFF" d="M132.8,16.2c0-1.5,0.9-2.7,2.4-3.3c1.5-0.6,3.4-0.8,4.8-0.8V11c0-1.4-0.7-1.7-2.4-1.7    c-1.1,0-2.8,0.4-3.6,0.9l-0.7-1.9c0.6-0.4,2.9-1.2,5-1.2c3.2,0,4.8,1,4.8,4.2v8.4h-1.7c-0.8,0-1.3-0.1-1.3-1.1v-0.1    c-0.7,0.6-1.9,1.2-3.5,1.2C134.4,19.7,132.8,18.3,132.8,16.2z M140,17v-3.2c-0.8,0-2.1,0.2-2.9,0.5c-0.7,0.3-1.2,0.8-1.2,1.6    c0,1.2,0.7,1.8,1.9,1.8C138.8,17.7,139.7,17.2,140,17z"></path>
		<path fill="#FFFFFF" d="M145.9,7.3h2.8l0.1,1.3c0.9-0.7,2.6-1.5,4.2-1.5c2.6,0,3.6,1.2,3.6,4.8v7.7h-3.1v-7.5c0-1.9-0.4-2.6-2-2.5    c-0.7,0-1.7,0.4-2.5,1v9h-3.1V7.3z"></path>
		<path fill="#FFFFFF" d="M169.1,9.5c0.2,0.5,0.3,1,0.3,1.6c0,2.5-1.9,4.1-5.3,4.1c-0.5,0-1,0-1.4-0.1c-0.4,0.3-0.5,0.7-0.5,1.1    c0,0.8,0.4,1,1.5,1h2.5c3.7,0,4.7,1.6,4.7,3.5c0,2.8-3.1,4.4-6.5,4.4c-3.8,0-5.7-1.3-5.7-3.7c0-1.1,0.7-2,1.7-2.5    c-0.7-0.4-1-1.1-1-1.8c0-0.8,0.5-1.8,1.7-2.4c-1.4-0.7-2.2-1.8-2.2-3.4c0-2.7,2.1-4.1,5.2-4.1c1.4,0,2.6,0.3,3.5,0.8    c0.5-0.4,1.3-0.7,2.2-0.7h1.3v2.3H169.1z M162.3,19.4c-0.3,0.4-0.6,0.9-0.6,1.6c0,1.3,0.6,2.2,2.7,2.2c1.7,0,3.3-0.6,3.3-1.8    c0-1.1-0.5-1.9-2.6-1.9h-2C162.8,19.5,162.6,19.4,162.3,19.4z M166.3,11.2c0-1.5-0.7-2.3-2.1-2.3c-1.3,0-2.2,0.5-2.2,2.3    c0,1.3,0.6,2.3,2.2,2.3C165.5,13.5,166.3,12.9,166.3,11.2z"></path>
		<path fill="#FFFFFF" d="M171.8,13.4c0-3.6,2.1-6.2,5.8-6.3c2.5,0,4.8,1.3,4.8,4.8c0,0.9,0,1.7-0.1,2.2h-7.4    c0.1,2.6,1.5,3.4,3.5,3.4c1.1,0,2.6-0.3,3.2-0.7l0.5,1.7c-0.8,0.7-2.7,1.2-4.5,1.2C173.9,19.7,171.8,17.4,171.8,13.4z M175,12.4    h4.6c0.1-1.8-0.3-3.2-2-3.2C176.2,9.2,175.2,10,175,12.4z"></path>
		<path fill="#FFFFFF" d="M191.5,3.2l1,0c1.4,0,2.2-0.1,3.7-0.1c3.6,0,5.3,1.4,5.3,3.8c0,1.6-0.7,3.4-2.6,3.9c2,0.1,3.7,1.7,3.7,3.9    c0,3.1-1.7,5-6.4,5c-1.2,0-2.6-0.1-3.7-0.2h-1V3.2z M197,10.5c1.7-0.1,2.7-1.4,2.7-3.3c0-2.1-1.6-2.8-3.9-2.8    c-0.6,0-1.9,0-2.5,0.1v6C194,10.5,196.2,10.5,197,10.5z M196.4,18.4c2.8,0,4.4-0.9,4.4-3.5c0-2.2-1.5-3.1-3.9-3.1    c-0.8,0-3,0-3.5,0v6.3C194.2,18.3,195.4,18.4,196.4,18.4z"></path>
		<path fill="#FFFFFF" d="M205.5,1.7h1.8v17.9h-1.8V1.7z"></path>
		<path fill="#FFFFFF" d="M215.6,7.1c3.8,0,5.3,3,5.3,6.5c-0.1,3.9-2.4,6.1-5.6,6.1c-3.9,0-5.4-3.1-5.3-6.5    C210.1,9.3,212.5,7.1,215.6,7.1z M219.1,13.5c0-2.8-1.1-5.1-3.5-5.1c-2.3,0-3.7,1.7-3.7,4.8c0,2.8,1.1,5.2,3.6,5.2    C217.8,18.5,219.1,16.6,219.1,13.5z"></path>
		<path fill="#FFFFFF" d="M224.5,19.1c-0.8-0.4-0.9-1.1-0.9-1.8c0-0.8,0.6-1.8,1.5-2.4c-1.2-0.7-2-1.9-2-3.4c0-2.9,2.1-4.2,4.7-4.3    c1.1,0,2.2,0.2,3,0.7c0.5-0.3,1.5-0.5,2.4-0.5h1.1v1.4h-2.5c0.5,0.6,0.7,1.4,0.7,2.4c0,2.8-2.1,4.3-4.8,4.3    c-0.6,0-1.1-0.1-1.7-0.2c-0.4,0.3-0.8,0.9-0.8,1.5c0,1,0.5,1.4,1.8,1.4h2.7c3.5,0,4.2,1.5,4.2,3c0,2.4-2.6,3.9-5.9,3.9    c-3.1,0-5.1-1-5.1-3.5C222.8,20.4,223.7,19.5,224.5,19.1z M227.9,23.9c2.1,0,4.1-0.7,4.1-2.3c0-1.4-0.8-2-3.2-2h-1.7    c-0.7,0-1.3,0-1.7-0.1c-0.5,0.4-1,1-1,2C224.5,23.1,225.6,23.9,227.9,23.9z M230.7,11.3c0-2-1.1-2.9-2.9-2.9c-1.6,0-3,0.7-3,3    c0,1.7,1,2.9,2.9,2.9C229.5,14.3,230.7,13.4,230.7,11.3z"></path>
	</g>
</g>
<g>
	<g>
		<rect x="0" y="12.1" fill="#FFFFFF" width="21.8" height="4.6"></rect>
		<rect x="0" y="6.1" fill="#FFFFFF" width="21.8" height="4.6"></rect>
		<path fill="#FFFFFF" d="M18.4,0H3.6C1.6,0,0,1.6,0,3.8V5h21.8V3.8C21.8,1.6,20.2,0,18.4,0z"></path>
		<path fill="#FFFFFF" d="M0,18 L0,19.2 C0,21.2 1.57818182,23 3.55090909,23 L12.7240909,23 L12.7240909,28 L17.2613636,23 L18.2477273,23 C20.2204545,23 21.7986364,21.4 21.7986364,19.2 L21.7986364,18 L0,18 L0,18 Z"></path>
	</g>
</g>
</svg>
