<svg id="Layer_1" data-name="Layer 1" xmlns="http://www.w3.org/2000/svg" viewBox="0 0 600.09 117.87"><defs><style>.cls-1{fill:#fff;}</style></defs><title>SO_logo_white</title><path class="cls-1" d="M135.87,72.91,129,72.3c-5.36-.43-7.44-2.59-7.44-6.23,0-4.32,3.29-7,9.51-7,4.41,0,8.3,1,11.33,3.37l4.07-4.07c-3.81-3.11-9.26-4.58-15.31-4.58-9.08,0-15.66,4.67-15.66,12.46,0,7,4.41,10.73,12.72,11.42l7,.61c4.93.43,7.09,2.51,7.09,6.23,0,5-4.33,7.53-11.33,7.53-5.28,0-9.86-1.38-13.23-4.93l-4.15,4.15c4.67,4.5,10.29,6.14,17.47,6.14,10.29,0,17.3-4.76,17.3-13C148.42,76.46,143.31,73.6,135.87,72.91Zm53.26-19.12c-6.83,0-11.13,1.35-14.9,6.12-.05.06,4.09,4.09,4.09,4.09,2.51-3.55,5.28-4.84,10.73-4.84,7.78,0,10.9,3.11,10.9,9.34v4.07h-12.8c-9.51,0-14.7,4.84-14.7,12.28a12.26,12.26,0,0,0,3.2,8.65c2.68,2.77,6.14,3.89,12,3.89,5.71,0,8.82-1.12,12.28-4.58v4.07h6.23V68C206.17,58.72,200.55,53.79,189.13,53.79Zm10.81,28c0,3.55-.69,6-2.16,7.35C195.1,91.77,191.9,92,188.27,92c-6.75,0-9.77-2.34-9.77-7.27s3.11-7.52,9.52-7.52h11.94Zm30.62-22.49c4.07,0,6.57,1.21,9.77,4.76,0,0,4.17-4.05,4.14-4.09-4.37-4.67-8.07-6.2-13.91-6.2-10.73,0-18.86,7.27-18.86,21.8s8.13,21.8,18.86,21.8c5.88,0,9.6-1.56,14-6.31L240.34,87c-3.2,3.55-5.71,4.84-9.77,4.84A11.53,11.53,0,0,1,220.7,87c-2-2.77-2.77-6.06-2.77-11.42s.78-8.65,2.77-11.42A11.53,11.53,0,0,1,230.56,59.33Zm53.34-5.08h-7.76L256.84,73l0-37.75h-6.23V96.87h6.23l0-15.53,7.55-7.58,14.27,23.11h7.7L268.71,69.44ZM313.16,52c-6.55,0-11,2.55-13.7,5.45-4,4.17-5,9.19-5,17.19s1,13.1,5,17.27c2.72,2.89,7.15,5.45,13.7,5.45s11.06-2.55,13.79-5.45c4-4.17,5-9.19,5-17.27s-1-13-5-17.19C324.23,54.59,319.72,52,313.16,52Zm5.19,33.44a7,7,0,0,1-5.19,2,6.79,6.79,0,0,1-5.11-2c-2.3-2.3-2.55-6.21-2.55-10.81s.25-8.43,2.55-10.72a6.79,6.79,0,0,1,5.11-2,7,7,0,0,1,5.19,2c2.3,2.3,2.55,6.13,2.55,10.72S320.65,83.18,318.36,85.48Zm43.07-32.93-8.93,27.4-9-27.4H331.81l16.34,44.33h8.68l16.25-44.33ZM391.9,52c-11.49,0-19.32,8.17-19.32,22.64,0,18,10,22.72,20.51,22.72,8,0,12.34-2.47,16.85-7l-6.72-6.55c-2.81,2.81-5.19,4.17-10,4.17-6.21,0-9.7-4.17-9.7-9.87h27.74V73.22C411.22,61.05,404.24,52,391.9,52Zm-8.42,18.55a12.2,12.2,0,0,1,1-4.77,8.26,8.26,0,0,1,14.81,0,12.22,12.22,0,0,1,1,4.77ZM427.54,56.8V52.54H416.73V96.88h11.06V70.16c0-5.62,3.74-8.17,7.15-8.17a7.28,7.28,0,0,1,5.84,2.61l8.37-8.39A13.37,13.37,0,0,0,438.69,52,15,15,0,0,0,427.54,56.8Zm25-8.88V96.83h11.06v-35h8.17V53.45h-8.17V48.6c0-2.55,1.28-4,3.91-4h4.26V35.24h-6.3C456.5,35.24,452.58,41.63,452.58,47.92ZM517.36,52c-6.55,0-11,2.55-13.7,5.45-4,4.17-5,9.19-5,17.19s1,13.1,5,17.27c2.72,2.89,7.15,5.45,13.7,5.45s11.06-2.55,13.79-5.45c4-4.17,5-9.19,5-17.27s-1-13-5-17.19C528.42,54.59,523.91,52,517.36,52Zm5.19,33.44a7,7,0,0,1-5.19,2,6.79,6.79,0,0,1-5.11-2c-2.3-2.3-2.55-6.21-2.55-10.81s.25-8.43,2.55-10.72a6.79,6.79,0,0,1,5.11-2,7,7,0,0,1,5.19,2c2.3,2.3,2.55,6.13,2.55,10.72S524.85,83.18,522.55,85.48Zm65.88-32.93-7.15,27.4-9.1-27.4h-8.08l-9,27.4-7.15-27.4H536.18l13.62,44.33h9.11l9.28-27.83,9.28,27.83h9.1l13.53-44.33Zm-100.29,31V35.24H477.07v49c0,6.3,3.83,12.68,12.93,12.68h6.3V87.52h-4.25C489.24,87.52,488.14,86.16,488.14,83.52ZM165.69,61l5.76-5.76H159.65v-14h-6.23v44.2c0,6.31,3.63,11.42,10.9,11.42h4.41V91.51h-3.29c-4,0-5.8-2.34-5.8-6.23V61Z"/><polygon class="cls-1" points="84.07 107.35 84.07 75.8 94.59 75.8 94.59 117.87 0 117.87 0 75.8 10.52 75.8 10.52 107.35 84.07 107.35"/><path class="cls-1" d="M22.09,72.9,73.55,83.71l2.16-10.29L24.25,62.61ZM28.9,48.26l47.67,22.2L81,60.92,33.34,38.73ZM42.09,24.87l40.4,33.65,6.73-8.08L48.82,16.79ZM68.17,0,59.73,6.28,91.11,48.47l8.44-6.28ZM21,96.83H73.63V86.32H21Z"/></svg>