<svg id="Layer_1" data-name="Layer 1" xmlns="http://www.w3.org/2000/svg" width="350.04" height="199.19" viewBox="0 0 350.04 199.19"><defs><style>.cls-1,.cls-2,.cls-5,.cls-7{fill:#fff;}.cls-2{stroke:#3af;stroke-width:0.6px;}.cls-2,.cls-7,.cls-9{stroke-linecap:round;stroke-linejoin:round;}.cls-3{fill:#f4f8fb;}.cls-4,.cls-9{fill:none;}.cls-4,.cls-5,.cls-9{stroke:#cceaff;}.cls-4,.cls-5{stroke-miterlimit:10;}.cls-6{fill:#cceaff;}.cls-7{stroke:#07c;}.cls-8{fill:#f48024;}.cls-9{stroke-width:3px;}</style></defs><title>assets</title><polygon class="cls-1" points="6.81 81.34 19.44 87.91 19.5 91.88 6.81 98.44 6.81 81.34"/><polygon class="cls-1" points="7.13 98.49 19.5 91.88 19.69 105.44 12.5 101.8 7.13 98.49"/><polygon class="cls-1" points="262.31 38.24 285.81 40.61 286.06 49.74 262.32 51.74 262.31 38.24"/><polygon class="cls-1" points="326.82 118.84 333.19 115.74 334.19 132.63 326.82 128.79 326.82 118.84"/><path class="cls-2" d="M19.69,87.61h0v0Zm13.12,11h0v0ZM6.57,80.9h0v0ZM19.69,91.83l13.12,6.84L19.69,105.5,6.57,98.66l13.12-6.84h0L6.57,98.66l13.12,6.84,13.12-6.84L19.69,91.83Zm0-17.89,13.12,6.84L19.69,87.61V73.94h0L6.57,80.78l.87.45,12.25,6.38,13.12-6.84L19.69,73.94ZM6.57,98.66"/><path class="cls-2" d="M73.19,142.54h0v0Zm7.37,6.17h0v0Zm-14.75-9.94h0v0Zm7.37,6.14,7.37,3.84-7.37,3.84-7.37-3.84,7.37-3.84h0l-7.37,3.84,7.37,3.84,7.37-3.84-7.37-3.84Zm0-10,7.37,3.84-7.37,3.84v-7.68h0l-7.37,3.84.49.26,6.88,3.59,7.37-3.84-7.37-3.84Zm-7.37,13.89"/><path class="cls-2" d="M334.19,122.61h0v0Zm7.37,6.17h0v0Zm-14.75-9.94h0v0Zm7.37,6.14,7.37,3.84-7.37,3.84-7.37-3.84,7.37-3.84h0l-7.37,3.84,7.37,3.84,7.37-3.84L334.19,125Zm0-10,7.37,3.84-7.37,3.84v-7.68h0l-7.37,3.84.49.26,6.88,3.59,7.37-3.84-7.37-3.84Zm-7.37,13.89"/><path class="cls-2" d="M274.19,42.44h0v0Zm11.87,9.3h0v0Zm-23.75-15h0v0ZM274.19,46l11.87,5.79-11.87,5.79-11.87-5.79L274.19,46h0l-11.87,5.79,11.87,5.79,11.87-5.79L274.19,46Zm0-15.15,11.87,5.79-11.87,5.79V30.85h0l-11.87,5.79.79.38,11.08,5.41,11.87-5.79-11.87-5.79ZM262.32,51.79"/><circle class="cls-3" cx="174.83" cy="87.39" r="76.45"/><path class="cls-4" d="M169.48,157.61c0-3.57,3.19-8,6.76-8"/><line class="cls-4" x1="176.24" y1="149.64" x2="182.7" y2="149.64"/><path class="cls-4" d="M182.7,149.64a6.46,6.46,0,0,0,0-12.92"/><line class="cls-4" x1="182.7" y1="136.72" x2="156.85" y2="136.72"/><path class="cls-4" d="M156.85,136.72a6.46,6.46,0,0,1-6.46-6.46"/><rect class="cls-4" x="137.19" y="157.89" width="76.92" height="30.75"/><polyline class="cls-5" points="137.19 186.43 137.19 157.89 214.11 157.89 214.11 186.43"/><line class="cls-4" x1="180.24" y1="186.01" x2="171.06" y2="186.01"/><rect class="cls-6" x="165.18" y="177.12" width="21.11" height="6.46"/><rect class="cls-6" x="149.51" y="161.56" width="5.51" height="5.51"/><rect class="cls-6" x="157.29" y="161.56" width="5.51" height="5.51"/><rect class="cls-6" x="165.06" y="161.56" width="5.51" height="5.51"/><rect class="cls-6" x="172.84" y="161.56" width="5.51" height="5.51"/><rect class="cls-6" x="180.61" y="161.56" width="5.51" height="5.51"/><rect class="cls-6" x="188.38" y="161.56" width="5.51" height="5.51"/><rect class="cls-6" x="196.16" y="161.56" width="5.51" height="5.51"/><rect class="cls-6" x="203.93" y="161.56" width="5.51" height="5.51"/><rect class="cls-6" x="141.74" y="161.56" width="5.51" height="5.51"/><rect class="cls-6" x="149.51" y="169.56" width="5.51" height="5.51"/><rect class="cls-6" x="157.29" y="169.56" width="5.51" height="5.51"/><rect class="cls-6" x="165.06" y="169.56" width="5.51" height="5.51"/><rect class="cls-6" x="172.84" y="169.56" width="5.51" height="5.51"/><rect class="cls-6" x="180.61" y="169.56" width="5.51" height="5.51"/><rect class="cls-6" x="188.38" y="169.56" width="5.51" height="5.51"/><rect class="cls-6" x="196.16" y="169.56" width="5.51" height="5.51"/><rect class="cls-6" x="203.93" y="169.56" width="5.51" height="5.51"/><rect class="cls-6" x="141.74" y="169.56" width="5.51" height="5.51"/><rect class="cls-6" x="149.51" y="177.56" width="5.51" height="5.51"/><rect class="cls-6" x="157.29" y="177.56" width="5.51" height="5.51"/><rect class="cls-6" x="188.38" y="177.56" width="5.51" height="5.51"/><rect class="cls-6" x="196.16" y="177.56" width="5.51" height="5.51"/><rect class="cls-6" x="203.93" y="177.56" width="5.51" height="5.51"/><rect class="cls-6" x="141.74" y="177.56" width="5.51" height="5.51"/><rect class="cls-7" x="128.13" y="58.83" width="91.59" height="71.59"/><line class="cls-7" x1="128.13" y1="71.91" x2="219.72" y2="71.91"/><line class="cls-7" x1="133.04" y1="65.37" x2="136.31" y2="65.37"/><line class="cls-7" x1="139.58" y1="65.37" x2="142.85" y2="65.37"/><line class="cls-7" x1="146.12" y1="65.37" x2="149.39" y2="65.37"/><line class="cls-7" x1="154.3" y1="58.83" x2="154.3" y2="71.91"/><line class="cls-7" x1="159.21" y1="65.37" x2="214.82" y2="65.37"/><rect class="cls-8" x="153.39" y="80.09" width="13.08" height="3.27"/><rect class="cls-8" x="153.39" y="86.63" width="22.9" height="3.27"/><rect class="cls-8" x="153.39" y="119.35" width="22.9" height="3.27"/><rect class="cls-8" x="153.39" y="93.18" width="22.9" height="3.27"/><rect class="cls-8" x="179.56" y="93.18" width="19.63" height="3.27"/><polygon class="cls-8" points="176.29 102.99 166.53 102.99 163.21 102.99 163.21 99.72 176.29 99.72 176.29 102.99"/><rect class="cls-8" x="179.56" y="99.72" width="29.44" height="3.27"/><rect class="cls-8" x="163.21" y="112.8" width="13.08" height="3.27"/><rect class="cls-8" x="179.56" y="112.8" width="22.9" height="3.27"/><rect class="cls-8" x="163.21" y="106.26" width="13.08" height="3.27"/><rect class="cls-8" x="179.56" y="106.26" width="16.36" height="3.27"/><line class="cls-9" x1="140.31" y1="81.73" x2="146.85" y2="81.73"/><line class="cls-9" x1="140.31" y1="88.27" x2="146.85" y2="88.27"/><line class="cls-9" x1="140.31" y1="94.81" x2="146.85" y2="94.81"/><line class="cls-9" x1="140.31" y1="101.35" x2="146.85" y2="101.35"/><line class="cls-9" x1="140.31" y1="107.9" x2="146.85" y2="107.9"/><line class="cls-9" x1="140.31" y1="114.44" x2="146.85" y2="114.44"/><line class="cls-9" x1="140.31" y1="120.98" x2="146.85" y2="120.98"/></svg>