<svg id="Layer_1" data-name="Layer 1" xmlns="http://www.w3.org/2000/svg" xmlns:xlink="http://www.w3.org/1999/xlink" width="350.04" height="199.19" viewBox="0 0 350.04 199.19"><defs><style>.cls-1,.cls-6{fill:none;}.cls-2{fill:#f4f8fb;}.cls-3{fill:#46b1a7;stroke:#fff;stroke-width:1.18px;}.cls-10,.cls-3,.cls-5,.cls-6,.cls-8,.cls-9{stroke-miterlimit:10;}.cls-4{clip-path:url(#clip-path);}.cls-10,.cls-5,.cls-8,.cls-9{fill:#fff;}.cls-5,.cls-6,.cls-9{stroke:#07c;}.cls-7{fill:#f48024;}.cls-8{stroke:#5ea7db;stroke-width:0.87px;}.cls-9{stroke-width:1.01px;}.cls-10{stroke:#3af;stroke-width:0.6px;}</style><clipPath id="clip-path"><rect class="cls-1" x="9.62" y="107.02" width="328.89" height="89.56"/></clipPath></defs><title>assets</title><circle class="cls-2" cx="176.21" cy="78.69" r="76.45"/><line class="cls-3" x1="257.5" y1="20.29" x2="266.52" y2="20.29"/><line class="cls-3" x1="262.01" y1="15.78" x2="262.01" y2="24.8"/><g class="cls-4"><circle class="cls-5" cx="179.61" cy="211.83" r="88.9"/><path class="cls-6" d="M109.73,155.82c-1.1-1.1,0-5.51,3.31-9.18s6.61-4.41,9.18-3.31"/><path class="cls-6" d="M231.23,139.1c1.1-1.1,5.62-.18,9.18,2.2,5,3.37,5,8.77,3.86,9.87"/><path class="cls-6" d="M131.68,171.24c-1.1-4.41,0-9.18,4.41-9.92h0a8.36,8.36,0,0,1,11,1.1"/><ellipse class="cls-5" cx="189.3" cy="178.93" rx="8.82" ry="6.61" transform="translate(-67.42 223.01) rotate(-53.13)"/><path class="cls-5" d="M211.48,153.7a6.7,6.7,0,0,1,9.18,1.1,7.25,7.25,0,0,1,1.1,6.61"/></g><path class="cls-7" d="M190.08,34.53,184.21,49.6a22.1,22.1,0,0,1,6.52,3.49l10.41-10.7a.74.74,0,0,0,0-1,28.69,28.69,0,0,0-10.1-7.27A.74.74,0,0,0,190.08,34.53Z"/><path class="cls-7" d="M157.57,34.78a.59.59,0,0,0-.36.83c.18.58,6.48,14,7.18,15.47A28.78,28.78,0,0,1,174,48.46l-2.1-16.16a.83.83,0,0,0-.91-.72A62.18,62.18,0,0,0,157.57,34.78Z"/><path class="cls-7" d="M207.53,55.9,197,60.29a31.73,31.73,0,0,1,3.38,8.1l7.51-.23A1.24,1.24,0,0,0,209.1,67a32.38,32.38,0,0,0-.87-10.79A.51.51,0,0,0,207.53,55.9Z"/><path class="cls-7" d="M173.16,32.33l2.08,16a26.68,26.68,0,0,1,4.42.19,23.85,23.85,0,0,1,3.44.69L189,34.16a.79.79,0,0,0-.49-1A38.68,38.68,0,0,0,174,31.33.89.89,0,0,0,173.16,32.33Z"/><path class="cls-7" d="M201.23,78a62.05,62.05,0,0,1-3.13,11.84,13.07,13.07,0,0,0,4.44,0c.61-.12.65-.51.66-1.12,0-1.22.19-3.29.3-4.65.26-3.26,3.54-7.21,5-13.59a1,1,0,0,0-1-1.16l-6.88.21A25.12,25.12,0,0,1,201.23,78Z"/><path class="cls-7" d="M205.59,48.36a25.18,25.18,0,0,0-2.85-5,.63.63,0,0,0-1-.06L191.58,53.78a25.58,25.58,0,0,1,4.81,5.53l10.76-4.49a.77.77,0,0,0,.44-.92A53.8,53.8,0,0,0,205.59,48.36Z"/><path class="cls-5" d="M198.1,89.88l.05-.16c-2.13,6.16-4.57,12-4.85,15.58a24.15,24.15,0,0,0,1,6.79c.76-.31,1.48-.68,2.2-1.06,2.23-1.18,4.6-2.58,7.22-2.35a6.43,6.43,0,0,1,4.78,2.94c1.21,1.93.89,4.23.08,6.25a21.53,21.53,0,0,1-1.35,2.71l-.4.68c-.41.68-.85,1.36-1.3,2l-.45.67-.67,1-.44.66-.63,1a19.29,19.29,0,0,0-2,3.9,36.62,36.62,0,0,0-1.13,4.35l-.19.93-.25,1.33-.16.83q-.08.4-.16.78c-.37,1.74-.78,3-1.48,3.13l-.19,0h-.25l-.19,0h0l-.16,0-.06,0-.15-.05,0,0-.18-.09,0,0-.14-.09-.06,0-.16-.11,0,0-.18-.15-.05,0-.13-.12-.05-.05-.18-.18h0l-.16-.19-.05-.06-.13-.16,0-.06-.17-.22,0,0-.14-.19-.05-.07-.13-.2,0-.05-.16-.26,0-.06-.13-.21,0-.08-.15-.25v0l-.16-.28,0-.07-.12-.23,0-.07-.15-.29-.15-.3,0-.07-.12-.25,0,0-.14-.31v0l-.13-.28,0-.06-.13-.29-.14-.32v0l-.12-.28v0l-.24-.6-.12-.3a32.59,32.59,0,0,1-5,3.51s-.56,4.83-1,7.13-.93,3.51-10.53,3.51-10.74-1.4-10.74-3.3c0-2.26,2.22-9.15,2.22-9.15-6.46-2.6-10.51-4.76-10.51-12.57,0-4.23,2.27-9.53,4.69-14l0,0c1.24-2.28,2.6-4.5,4-6.67a31.52,31.52,0,0,0,3.36-5.39,2.32,2.32,0,0,0,.21-.88,1,1,0,0,0-.38-.79,1.41,1.41,0,0,0-.72-.18c-2-.11-4,.07-6,.12s-3.86.08-5.8,0a41.78,41.78,0,0,1-6.24-.52,8.51,8.51,0,0,1-4.2-1.57,23.56,23.56,0,0,1-6.24-8.69c-1.62-4,.13-7.9.8-9.11a71.52,71.52,0,0,1,12.41-16.6c-5-10-8.91-18-8.38-20.54a1.33,1.33,0,0,1,.18-.47.86.86,0,0,1,.14-.16l0,0a.84.84,0,0,1,.18-.12,1.19,1.19,0,0,1,.55-.11l.34,0a12.76,12.76,0,0,1,4.45,2.45q.6.45,1.23,1t1.28,1.06c1.52,1.29,3.1,2.75,4.62,4.23l.65.64c1.65,1.65,3.2,3.29,4.46,4.74q1-.53,2-1s16.44-8.11,28.4,3.81C208.52,70.57,198.1,89.88,198.1,89.88Z"/><path class="cls-8" d="M178.84,41.79c2-.69,8.09,9.19,7.67,11.08s-7.49,4-9.48,2.2c-.81-.75-1.77-4.38-1.35-5.62C176.37,47.37,176.87,42.48,178.84,41.79Z"/><path class="cls-8" d="M178.24,42.17c-1.47,1.37-1.94,5.43-2.56,7.27-.41,1.24.54,4.88,1.35,5.62a3.72,3.72,0,0,0,2.49.69C180.41,43.68,179.36,41.26,178.24,42.17Z"/><path class="cls-9" d="M184.8,94.21c-1.76,2.4-11.83,16.33-13.2,24.64s8,10.66,11.44,5.68c3.6-5.28,6.72-25.76,6.48-28.32C189.52,92.61,186.31,92.15,184.8,94.21Z"/><path class="cls-9" d="M178.84,41.79c2-.69,8.09,9.19,7.67,11.08s-7.49,4-9.48,2.2c-.81-.75-1.77-4.38-1.35-5.62C176.37,47.37,176.87,42.48,178.84,41.79Z"/><path class="cls-9" d="M178.24,42.17c-1.47,1.37-1.94,5.43-2.56,7.27-.41,1.24.54,4.88,1.35,5.62a3.72,3.72,0,0,0,2.49.69C180.41,43.68,179.36,41.26,178.24,42.17Z"/><circle class="cls-9" cx="166.65" cy="67.76" r="2.46"/><path class="cls-10" d="M57.36,114.29v4.08a.29.29,0,1,0,.58,0v-4.08a.29.29,0,1,0-.58,0"/><path class="cls-10" d="M57.36,130.63v4.08a.29.29,0,0,0,.58,0v-4.08a.29.29,0,0,0-.58,0"/><path class="cls-10" d="M67.86,124.21H63.78a.29.29,0,0,0,0,.58h4.08a.29.29,0,0,0,0-.58"/><path class="cls-10" d="M51.52,124.21H47.44a.29.29,0,0,0,0,.58h4.08a.29.29,0,0,0,0-.58"/><path class="cls-10" d="M64.66,117.07,61.78,120a.29.29,0,0,0,.41.41l2.88-2.88a.29.29,0,0,0-.41-.41"/><path class="cls-10" d="M53.11,128.63l-2.88,2.88a.29.29,0,1,0,.41.41L53.52,129a.29.29,0,0,0-.41-.41"/><path class="cls-10" d="M65.08,131.51l-2.88-2.88a.29.29,0,1,0-.41.41l2.88,2.88a.29.29,0,0,0,.41-.41"/><path class="cls-10" d="M53.52,120l-2.88-2.88a.29.29,0,0,0-.41.41l2.88,2.88a.29.29,0,0,0,.41-.41"/><path class="cls-10" d="M295,26v2.6a.19.19,0,1,0,.37,0V26a.19.19,0,1,0-.37,0"/><path class="cls-10" d="M295,36.47v2.6a.19.19,0,1,0,.37,0v-2.6a.19.19,0,1,0-.37,0"/><path class="cls-10" d="M301.67,32.38h-2.6a.19.19,0,0,0,0,.37h2.6a.19.19,0,0,0,0-.37"/><path class="cls-10" d="M291.24,32.38h-2.6a.19.19,0,0,0,0,.37h2.6a.19.19,0,0,0,0-.37"/><path class="cls-10" d="M299.63,27.82l-1.84,1.84a.19.19,0,0,0,.26.26l1.84-1.84a.19.19,0,0,0-.26-.26"/><path class="cls-10" d="M292.26,35.2,290.42,37a.19.19,0,0,0,.26.26l1.84-1.84a.19.19,0,1,0-.26-.26"/><path class="cls-10" d="M299.89,37l-1.84-1.84a.19.19,0,1,0-.26.26l1.84,1.84a.19.19,0,1,0,.26-.26"/><path class="cls-10" d="M292.52,29.67l-1.84-1.84a.19.19,0,0,0-.26.26l1.84,1.84a.19.19,0,0,0,.26-.26"/></svg>