<svg id="Layer_1" data-name="Layer 1" xmlns="http://www.w3.org/2000/svg" width="350.04" height="199.19" viewBox="0 0 350.04 199.19"><defs><style>.cls-1{fill:#f3f7fa;}.cls-2{fill:#cce8f8;}.cls-3,.cls-6{fill:#fff;}.cls-3,.cls-5{stroke:#2576bb;stroke-linecap:round;}.cls-3,.cls-5,.cls-6{stroke-miterlimit:10;}.cls-4{fill:#f38021;}.cls-5{fill:none;stroke-width:0.72px;}.cls-6{stroke:#55a2d8;stroke-width:0.6px;}</style></defs><title>assets</title><circle class="cls-1" cx="172.77" cy="82.33" r="76.45"/><rect class="cls-2" x="201.58" y="150.89" width="12.24" height="12.25"/><rect class="cls-2" x="131.7" y="150.89" width="12.24" height="12.25"/><path class="cls-3" d="M213.67,132.67a8.44,8.44,0,0,0-14.41,6v.53c-11.72-1.68-10.23-16-10.23-33.33V94.27a81,81,0,0,0-14.36-46.17l-1.91-2.77-1.91,2.77A80.94,80.94,0,0,0,156.5,94.27v11.57c0,17.34,1.49,31.65-10.23,33.33v-.53a8.44,8.44,0,1,0-16.88,0v26.81h16.88v-5.08l11.2-4,4.24,9.1h22.12l4.23-9.1,11.2,4v5.08h16.88V138.64A8.38,8.38,0,0,0,213.67,132.67Zm-79.65,6a3.8,3.8,0,1,1,7.6,0v22.17H134Zm77.48,22.17h-7.6V138.64a3.8,3.8,0,1,1,7.6,0Z"/><path class="cls-2" d="M172.77,99.44a8.88,8.88,0,1,1,8.88-8.88A8.89,8.89,0,0,1,172.77,99.44Zm0-13.12A4.24,4.24,0,1,0,177,90.56,4.25,4.25,0,0,0,172.77,86.32Z"/><rect class="cls-2" x="170.44" y="110.98" width="4.64" height="4.64"/><rect class="cls-2" x="170.45" y="119.07" width="4.64" height="4.64"/><rect class="cls-2" x="170.45" y="127.16" width="4.64" height="4.64"/><rect class="cls-2" x="170.44" y="135.25" width="4.64" height="4.64"/><path class="cls-4" d="M172.77,49.42a78.82,78.82,0,0,0-10.55,21.9h21.1A78.79,78.79,0,0,0,172.77,49.42Z"/><line class="cls-5" x1="136.99" y1="178.7" x2="136.99" y2="171.48"/><line class="cls-5" x1="208.13" y1="177.64" x2="208.13" y2="171.48"/><line class="cls-5" x1="170.42" y1="186.88" x2="170.42" y2="172.2"/><line class="cls-5" x1="174.69" y1="192.93" x2="174.69" y2="172.2"/><polygon class="cls-2" points="164.66 160.81 162.45 156.07 183.08 156.07 180.87 160.81 164.66 160.81"/><path class="cls-6" d="M344.54,110a3.72,3.72,0,0,0-1.76.29,8.12,8.12,0,0,0,.29-2.64,13.49,13.49,0,1,0-27,0V108a8.68,8.68,0,0,0-2.93-.59,7,7,0,1,0,0,14.08h31.39a5.57,5.57,0,0,0,5.57-5.57A5.83,5.83,0,0,0,344.54,110Z"/><path class="cls-6" d="M44.08,82.74a2.23,2.23,0,0,1,1.48.37,16.06,16.06,0,0,0-.37-1.85,10.39,10.39,0,1,1,20.77,0v.37a4.7,4.7,0,0,1,2.23-.37,5.19,5.19,0,1,1,0,10.39H44.08a4.51,4.51,0,0,1-4.45-4.45C40,84.59,41.85,82.74,44.08,82.74Z"/><path class="cls-6" d="M6.43,124.13a1.34,1.34,0,0,1,.89.22,9.63,9.63,0,0,0-.22-1.11A6.37,6.37,0,0,1,13.33,117a6.37,6.37,0,0,1,6.23,6.23v.22a2.82,2.82,0,0,1,1.33-.22,3.11,3.11,0,0,1,0,6.23H6.43a2.7,2.7,0,0,1-2.67-2.67A2.86,2.86,0,0,1,6.43,124.13Z"/><path class="cls-6" d="M263.33,75.16a1.34,1.34,0,0,1,.89.22,9.63,9.63,0,0,0-.22-1.11,6.23,6.23,0,0,1,12.46,0v.22a2.82,2.82,0,0,1,1.33-.22,3.11,3.11,0,1,1,0,6.23H263.33a2.7,2.7,0,0,1-2.67-2.67A2.86,2.86,0,0,1,263.33,75.16Z"/></svg>