<svg id="Layer_1" data-name="Layer 1" xmlns="http://www.w3.org/2000/svg" width="350.04" height="199.19" viewBox="0 0 350.04 199.19"><defs><style>.cls-1{fill:#f4f8fb;}.cls-2,.cls-3,.cls-5,.cls-7{fill:#fff;}.cls-10,.cls-12,.cls-2,.cls-4,.cls-8{stroke:#07c;}.cls-10,.cls-11,.cls-12,.cls-2,.cls-3,.cls-4,.cls-5,.cls-6,.cls-8{stroke-miterlimit:10;}.cls-2,.cls-4,.cls-5{stroke-width:1.01px;}.cls-3{stroke:#3af;stroke-width:0.6px;}.cls-10,.cls-11,.cls-12,.cls-4,.cls-6{fill:none;}.cls-5{stroke:#478ac9;}.cls-6{stroke:#9fd1f1;stroke-width:0.94px;}.cls-8{fill:#cceaff;}.cls-10,.cls-8{stroke-linecap:round;}.cls-9{fill:#f48024;}.cls-11{stroke:#fff;}</style></defs><title>assets</title><circle class="cls-1" cx="175.9" cy="80.58" r="76.45"/><line class="cls-2" x1="123.67" y1="145.48" x2="153.98" y2="115.17"/><line class="cls-3" x1="288.77" y1="89.85" x2="297.33" y2="89.85"/><line class="cls-3" x1="293.05" y1="85.56" x2="293.05" y2="94.13"/><line class="cls-3" x1="288.77" y1="89.85" x2="297.33" y2="89.85"/><line class="cls-3" x1="47.9" y1="53.46" x2="65.72" y2="53.46"/><line class="cls-3" x1="56.81" y1="44.55" x2="56.81" y2="62.37"/><line class="cls-3" x1="47.9" y1="53.46" x2="65.72" y2="53.46"/><path class="cls-4" d="M152.55,132.25a7.45,7.45,0,0,0,0,10.54"/><line class="cls-2" x1="152.55" y1="132.25" x2="160.65" y2="124.15"/><path class="cls-4" d="M136.45,116.16a7.45,7.45,0,0,1-10.54,0"/><line class="cls-2" x1="136.45" y1="116.16" x2="144.55" y2="108.05"/><line class="cls-2" x1="143.58" y1="115.8" x2="127.81" y2="131.58"/><line class="cls-5" x1="152.9" y1="125.12" x2="137.13" y2="140.9"/><path class="cls-6" d="M310.89,144.81a47.69,47.69,0,0,0-39.57,21,64.13,64.13,0,0,0-116.38,3.68,47.7,47.7,0,0,0-53.26-6.24A75.33,75.33,0,0,0,39.15,130"/><path class="cls-7" d="M39.15,131a75.33,75.33,0,0,1,62.54,33.26,47.7,47.7,0,0,1,53.26,6.24,64.13,64.13,0,0,1,116.38-3.68,47.69,47.69,0,0,1,39.57-21v49.27H39.15Z"/><path class="cls-8" d="M175.36,115.3l-2.27,2.34-25.77-25,2.27-2.34a3.26,3.26,0,0,1,4.61-.07l21.08,20.42A3.26,3.26,0,0,1,175.36,115.3Z"/><path class="cls-9" d="M224.06,60.32,203.64,81.41a14.67,14.67,0,0,1-20.75.33h0A14.67,14.67,0,0,1,182.55,61L203,39.91a14.67,14.67,0,0,1,20.75-.33h0A14.67,14.67,0,0,1,224.06,60.32Z"/><path class="cls-10" d="M214.07,84.7l-3.4,3.51a24.46,24.46,0,0,1-34.58.56h0a24.46,24.46,0,0,1-.56-34.58l3.4-3.51"/><line class="cls-11" x1="213.85" y1="70.87" x2="192.76" y2="50.45"/><line class="cls-11" x1="206.52" y1="45.61" x2="201.84" y2="41.08"/><line class="cls-11" x1="221.13" y1="37.57" x2="216.84" y2="41.99"/><line class="cls-11" x1="225.81" y1="42.1" x2="221.53" y2="46.53"/><line class="cls-11" x1="201.98" y1="50.3" x2="197.3" y2="45.76"/><line class="cls-11" x1="192.91" y1="59.67" x2="188.22" y2="55.13"/><line class="cls-11" x1="188.37" y1="64.36" x2="183.69" y2="59.82"/><line class="cls-11" x1="204.77" y1="80.24" x2="200.09" y2="75.7"/><line class="cls-11" x1="209.31" y1="75.55" x2="204.62" y2="71.01"/><line class="cls-11" x1="218.38" y1="66.18" x2="213.7" y2="61.64"/><line class="cls-11" x1="222.92" y1="61.49" x2="218.24" y2="56.96"/><line class="cls-10" x1="181.27" y1="52.94" x2="178.93" y2="50.67"/><line class="cls-10" x1="214.07" y1="84.7" x2="211.73" y2="82.43"/><line class="cls-12" x1="176.08" y1="88.77" x2="164.74" y2="100.48"/></svg>