<svg id="Layer_1" data-name="Layer 1" xmlns="http://www.w3.org/2000/svg" width="350.04" height="199.19" viewBox="0 0 350.04 199.19"><defs><style>.cls-1{fill:#f4f8fb;}.cls-2,.cls-4{fill:#fff;}.cls-2{stroke:#07c;stroke-width:0.87px;}.cls-2,.cls-3,.cls-4{stroke-miterlimit:10;}.cls-3{fill:#f48024;stroke:#fff;stroke-width:2px;}.cls-4{stroke:#3af;stroke-width:0.6px;}</style></defs><title>assets</title><circle class="cls-1" cx="182.07" cy="84.72" r="76.45"/><path class="cls-2" d="M146.75,191.31V164.9c0-21.89-17.38-40.31-17.38-65.68a45.88,45.88,0,0,1,91.75,0l10,32.67h-10v19.81a13.2,13.2,0,0,1-13.21,13.21H194.71v26.41"/><line class="cls-2" x1="194.71" y1="164.9" x2="188.11" y2="164.9"/><path class="cls-2" d="M142.58,66.55a46.51,46.51,0,0,1,32.67-13.21,45.83,45.83,0,0,1,45.88,45.88l10,32.67h-10v19.81a13.2,13.2,0,0,1-13.21,13.21H194.71v26.41"/><polyline class="cls-3" points="179.91 92.96 199.38 92.96 186.52 79.75 158.02 88.44"/><polyline class="cls-3" points="114.23 79.75 94.42 79.75 129.52 105.82 116.31 149.61 138.21 123.54 173.31 105.82 186.52 79.75"/><polygon class="cls-3" points="186.52 79.75 158.02 88.44 148.98 79.75 114.23 79.75 94.42 79.75 129.52 105.82 116.31 149.61 138.21 123.54 173.31 105.82 179.91 92.96 199.38 92.96 186.52 79.75"/><polygon class="cls-3" points="173.31 105.82 129.52 105.82 103.11 62.03 148.98 79.75 173.31 105.82"/><polygon class="cls-3" points="173.31 105.82 129.52 105.82 103.11 62.03 148.98 79.75 173.31 105.82"/><line class="cls-3" x1="179.91" y1="92.96" x2="186.52" y2="79.75"/><polygon class="cls-4" points="291.49 69.99 302.74 69.99 296.73 58.79 291.49 69.99"/><polygon class="cls-4" points="55.34 131.9 45.39 131.9 50.72 140.91 55.34 131.9"/></svg>