<svg id="Layer_1" data-name="Layer 1" xmlns="http://www.w3.org/2000/svg" width="350.04" height="199.19" viewBox="0 0 350.04 199.19"><defs><style>.cls-1{fill:#f4f8fb;}.cls-2,.cls-9{fill:#fff;}.cls-3{fill:#f48020;stroke:#f4f8fb;}.cls-3,.cls-4,.cls-5{stroke-miterlimit:10;}.cls-10,.cls-4,.cls-5,.cls-7,.cls-8{fill:none;}.cls-4,.cls-7,.cls-8,.cls-9{stroke:#07c;}.cls-10,.cls-4,.cls-7,.cls-8,.cls-9{stroke-linecap:round;}.cls-5{stroke:#3af;stroke-width:0.87px;}.cls-6{fill:#cceaff;}.cls-10,.cls-7,.cls-8,.cls-9{stroke-linejoin:round;}.cls-8{stroke-width:1.01px;stroke-dasharray:1 2;}.cls-10{stroke:#cceaff;}</style></defs><title>assets</title><circle class="cls-1" cx="187.64" cy="86.58" r="76.45"/><polygon class="cls-2" points="182.16 87.11 120.73 148.5 210.74 172.62 280.94 159.27 249.72 127.4 234.32 139.03 182.16 87.11"/><rect class="cls-3" x="184.49" y="62.72" width="12.08" height="12.63"/><polygon class="cls-3" points="208.67 78.92 196.6 78.92 196.6 66.28 208.67 66.28 203.59 72.33 208.67 78.92"/><line class="cls-4" x1="182.98" y1="63.02" x2="182.98" y2="87.53"/><path class="cls-5" d="M53.75,143.41a7.63,7.63,0,0,1-15.26,0c0-4.22,3.41-20.34,7.63-20.34S53.75,139.21,53.75,143.41Z"/><line class="cls-5" x1="46.12" y1="151.04" x2="46.12" y2="163.75"/><line class="cls-5" x1="311.11" y1="160" x2="311.11" y2="168"/><path class="cls-5" d="M327.15,151.37a7.63,7.63,0,0,1-15.26,0c0-4.22,3.41-20.34,7.63-20.34S327.15,147.17,327.15,151.37Z"/><line class="cls-5" x1="319.52" y1="159" x2="319.52" y2="169.25"/><path class="cls-5" d="M316.67,154.42a5.63,5.63,0,0,1-11.24,0c0-3.1,2.52-15,5.63-15S316.67,151.28,316.67,154.42Z"/><path class="cls-6" d="M162.67,105.22c6.46,2.58,6.46,8.4,11.63,7.11s7.16-5.17,12-1c2.92,2.56,6,1.94,9.42,1.62,5.14-.49,2.53-6.68,4.47-8.61L181.89,87.13Z"/><polygon class="cls-6" points="252.41 157.17 234.75 138.87 241.48 133.11 252.41 157.17"/><polygon class="cls-6" points="182.19 142.17 197.19 153.17 195.3 155.77 182.19 142.17"/><polygon class="cls-6" points="142.35 127.34 175.52 147 167.35 154.26 142.35 127.34"/><polyline class="cls-7" points="288.65 164.82 249.72 126.97 233.73 138.92 251.98 157.33 182.16 86.68 142.35 127.34"/><line class="cls-6" x1="181.24" y1="91.76" x2="154.43" y2="118.9"/><path class="cls-8" d="M171.39,110.66c-2.26,4.9-2.45,5.09-2.07,7.73s.38,4.15,0,4.9"/><path class="cls-7" d="M172.41,108.45c.86-2.15,2.17-3,3.88-5.17s5.88-16.6,5.88-16.6"/><polyline class="cls-9" points="101.86 142.67 132.47 116.73 167.24 154"/><polygon class="cls-6" points="111.86 153.46 102.02 143.17 107.79 138.32 111.86 153.46"/><polygon class="cls-6" points="198.9 159.24 195.33 155.68 197.49 153.28 198.9 159.24"/><polyline class="cls-7" points="137.31 180.91 181.24 141.5 202.02 162.75"/><polyline class="cls-7" points="195.45 154.75 206.11 146.67 231.02 169.5"/><path class="cls-10" d="M4,163.58c30.15-1.72,64.33,3.32,93.62,7.63S165.09,195,226.25,187.26"/><path class="cls-10" d="M190.93,183c25.84-10.34,76.59-32.45,155.09-6.45"/><polyline class="cls-7" points="61.35 166.34 95.32 136.01 111.86 153.46"/></svg>